# xmcd
#
# Track frame offsets: 
#        150
#        15161
#        32622
#        46212
#        60550
#        77644
#        91115
#        106719
#        121154
#        138359
#        151951
#        166373
#        181055
#        196917
#        213791
#        228082
#        244430
#        259826
#
# Disc length: 3682 seconds
#
# Revision: 0
# Processed by: cddbd v1.5.2PL0 Copyright (c) Steve Scherf et al.
# Submitted via: ExactAudioCopyFreeDBPlugin 1.0
#
DISCID=d10e6012
DTITLE=Forró Anjo Azul - Forró Anjo Azul Ao Vivo - Vol. 2
DYEAR=1900
DGENRE=Folklore
TTITLE0=Stop, Pro Seu Coração
TTITLE1=Me Ajude Agora (Deus)
TTITLE2=Coração Mole
TTITLE3=Duvido
TTITLE4=Não Posso Voltar
TTITLE5=Ou Ele Ou Eu
TTITLE6=Tudo Para Com Você
TTITLE7=Chega Junto
TTITLE8=Atende o Telefone
TTITLE9=Alfabeto do Amor
TTITLE10=Faltando Você
TTITLE11=Louca
TTITLE12=Aquele Anjo
TTITLE13=Promessa
TTITLE14=Amanhecer
TTITLE15=Vai Por Aí
TTITLE16=Sem Asas Pra Voar
TTITLE17=Agora Quem
EXTD=
EXTT0=
EXTT1=
EXTT2=
EXTT3=
EXTT4=
EXTT5=
EXTT6=
EXTT7=
EXTT8=
EXTT9=
EXTT10=
EXTT11=
EXTT12=
EXTT13=
EXTT14=
EXTT15=
EXTT16=
EXTT17=
PLAYORDER=
